<mxfile host="Electron" agent="Mozilla/5.0 (Windows NT 10.0; Win64; x64) AppleWebKit/537.36 (KHTML, like Gecko) draw.io/28.0.6 Chrome/138.0.7204.100 Electron/37.2.3 Safari/537.36" version="28.0.6">
  <diagram name="Страница — 1" id="EMKSoO1RbGlXgCzDTE9A">
    <mxGraphModel dx="2292" dy="-78" grid="1" gridSize="10" guides="1" tooltips="1" connect="1" arrows="1" fold="1" page="1" pageScale="1" pageWidth="1169" pageHeight="827" math="0" shadow="0">
      <root>
        <mxCell id="0" />
        <mxCell id="1" parent="0" />
        <mxCell id="4QsWJVczEeUK-PjktePI-11" value="ESP32 S3 Pro" style="rounded=0;whiteSpace=wrap;html=1;labelPosition=center;verticalLabelPosition=bottom;align=center;verticalAlign=top;fontSize=16;" vertex="1" parent="1">
          <mxGeometry x="-820" y="1070" width="170" height="319" as="geometry" />
        </mxCell>
        <mxCell id="4QsWJVczEeUK-PjktePI-12" value="&lt;font style=&quot;font-size: 16px;&quot;&gt;LINTHE&amp;nbsp;&lt;span style=&quot;color: rgb(31, 35, 40); text-align: left; background-color: rgb(255, 255, 255);&quot;&gt;&lt;font style=&quot;&quot; face=&quot;Helvetica&quot;&gt;134B&lt;/font&gt;&lt;/span&gt;&lt;/font&gt;" style="rounded=1;whiteSpace=wrap;html=1;labelPosition=center;verticalLabelPosition=top;align=center;verticalAlign=bottom;" vertex="1" parent="1">
          <mxGeometry x="-1110" y="880" width="290" height="140" as="geometry" />
        </mxCell>
        <mxCell id="4QsWJVczEeUK-PjktePI-13" value="Power Source" style="rounded=0;whiteSpace=wrap;html=1;labelPosition=center;verticalLabelPosition=bottom;align=center;verticalAlign=top;fontSize=16;" vertex="1" parent="1">
          <mxGeometry x="-1010" y="1340" width="130" height="110" as="geometry" />
        </mxCell>
        <mxCell id="4QsWJVczEeUK-PjktePI-75" style="edgeStyle=orthogonalEdgeStyle;rounded=0;orthogonalLoop=1;jettySize=auto;html=1;exitX=0.5;exitY=0;exitDx=0;exitDy=0;entryX=0;entryY=0.8;entryDx=0;entryDy=0;startArrow=classic;startFill=1;" edge="1" parent="1" source="4QsWJVczEeUK-PjktePI-17" target="4QsWJVczEeUK-PjktePI-74">
          <mxGeometry relative="1" as="geometry" />
        </mxCell>
        <mxCell id="4QsWJVczEeUK-PjktePI-17" value="3.3V" style="ellipse;whiteSpace=wrap;html=1;aspect=fixed;labelPosition=center;verticalLabelPosition=bottom;align=center;verticalAlign=top;" vertex="1" parent="1">
          <mxGeometry x="-955" y="1350" width="20" height="20" as="geometry" />
        </mxCell>
        <mxCell id="4QsWJVczEeUK-PjktePI-69" style="edgeStyle=orthogonalEdgeStyle;rounded=0;orthogonalLoop=1;jettySize=auto;html=1;exitX=1;exitY=0.8;exitDx=0;exitDy=0;entryX=0.5;entryY=1;entryDx=0;entryDy=0;startArrow=classic;startFill=1;" edge="1" parent="1" source="4QsWJVczEeUK-PjktePI-72" target="4QsWJVczEeUK-PjktePI-20">
          <mxGeometry relative="1" as="geometry" />
        </mxCell>
        <mxCell id="4QsWJVczEeUK-PjktePI-18" value="5&lt;span style=&quot;background-color: transparent; color: light-dark(rgb(0, 0, 0), rgb(255, 255, 255));&quot;&gt;V&lt;/span&gt;" style="ellipse;whiteSpace=wrap;html=1;aspect=fixed;labelPosition=center;verticalLabelPosition=bottom;align=center;verticalAlign=top;" vertex="1" parent="1">
          <mxGeometry x="-1000" y="1350" width="20" height="20" as="geometry" />
        </mxCell>
        <mxCell id="4QsWJVczEeUK-PjktePI-61" style="edgeStyle=orthogonalEdgeStyle;rounded=0;orthogonalLoop=1;jettySize=auto;html=1;exitX=0.5;exitY=0;exitDx=0;exitDy=0;entryX=0;entryY=0.5;entryDx=0;entryDy=0;startArrow=classic;startFill=1;" edge="1" parent="1" source="4QsWJVczEeUK-PjktePI-19" target="4QsWJVczEeUK-PjktePI-50">
          <mxGeometry relative="1" as="geometry" />
        </mxCell>
        <mxCell id="4QsWJVczEeUK-PjktePI-71" style="edgeStyle=orthogonalEdgeStyle;rounded=0;orthogonalLoop=1;jettySize=auto;html=1;exitX=0;exitY=0;exitDx=0;exitDy=0;entryX=0.5;entryY=1;entryDx=0;entryDy=0;startArrow=classic;startFill=1;jumpStyle=arc;" edge="1" parent="1" source="4QsWJVczEeUK-PjktePI-19" target="4QsWJVczEeUK-PjktePI-22">
          <mxGeometry relative="1" as="geometry">
            <Array as="points">
              <mxPoint x="-920" y="1353" />
              <mxPoint x="-920" y="1320" />
              <mxPoint x="-930" y="1320" />
              <mxPoint x="-930" y="1060" />
              <mxPoint x="-1000" y="1060" />
            </Array>
          </mxGeometry>
        </mxCell>
        <mxCell id="4QsWJVczEeUK-PjktePI-19" value="GND" style="ellipse;whiteSpace=wrap;html=1;aspect=fixed;labelPosition=center;verticalLabelPosition=bottom;align=center;verticalAlign=top;" vertex="1" parent="1">
          <mxGeometry x="-910" y="1350" width="20" height="20" as="geometry" />
        </mxCell>
        <mxCell id="4QsWJVczEeUK-PjktePI-70" style="edgeStyle=orthogonalEdgeStyle;rounded=0;orthogonalLoop=1;jettySize=auto;html=1;exitX=1;exitY=0.5;exitDx=0;exitDy=0;entryX=0;entryY=0.5;entryDx=0;entryDy=0;startArrow=classic;startFill=1;" edge="1" parent="1" source="4QsWJVczEeUK-PjktePI-20" target="4QsWJVczEeUK-PjktePI-21">
          <mxGeometry relative="1" as="geometry" />
        </mxCell>
        <mxCell id="4QsWJVczEeUK-PjktePI-20" value="VCC" style="ellipse;whiteSpace=wrap;html=1;aspect=fixed;labelPosition=center;verticalLabelPosition=top;align=center;verticalAlign=bottom;" vertex="1" parent="1">
          <mxGeometry x="-1090" y="980" width="20" height="20" as="geometry" />
        </mxCell>
        <mxCell id="4QsWJVczEeUK-PjktePI-21" value="PWR" style="ellipse;whiteSpace=wrap;html=1;aspect=fixed;labelPosition=center;verticalLabelPosition=top;align=center;verticalAlign=bottom;" vertex="1" parent="1">
          <mxGeometry x="-1050" y="980" width="20" height="20" as="geometry" />
        </mxCell>
        <mxCell id="4QsWJVczEeUK-PjktePI-22" value="GND" style="ellipse;whiteSpace=wrap;html=1;aspect=fixed;labelPosition=center;verticalLabelPosition=top;align=center;verticalAlign=bottom;" vertex="1" parent="1">
          <mxGeometry x="-1010" y="980" width="20" height="20" as="geometry" />
        </mxCell>
        <mxCell id="4QsWJVczEeUK-PjktePI-23" value="TX" style="ellipse;whiteSpace=wrap;html=1;aspect=fixed;labelPosition=center;verticalLabelPosition=top;align=center;verticalAlign=bottom;" vertex="1" parent="1">
          <mxGeometry x="-860" y="980" width="20" height="20" as="geometry" />
        </mxCell>
        <mxCell id="4QsWJVczEeUK-PjktePI-24" value="RX" style="ellipse;whiteSpace=wrap;html=1;aspect=fixed;labelPosition=center;verticalLabelPosition=top;align=center;verticalAlign=bottom;" vertex="1" parent="1">
          <mxGeometry x="-890" y="980" width="20" height="20" as="geometry" />
        </mxCell>
        <mxCell id="4QsWJVczEeUK-PjktePI-26" value="&lt;span style=&quot;font-size: 16px;&quot;&gt;NEO M8N&lt;/span&gt;" style="rounded=1;whiteSpace=wrap;html=1;labelPosition=center;verticalLabelPosition=top;align=center;verticalAlign=bottom;" vertex="1" parent="1">
          <mxGeometry x="-730" y="880" width="290" height="140" as="geometry" />
        </mxCell>
        <mxCell id="4QsWJVczEeUK-PjktePI-27" value="VCC" style="ellipse;whiteSpace=wrap;html=1;aspect=fixed;labelPosition=center;verticalLabelPosition=top;align=center;verticalAlign=bottom;" vertex="1" parent="1">
          <mxGeometry x="-710" y="980" width="20" height="20" as="geometry" />
        </mxCell>
        <mxCell id="4QsWJVczEeUK-PjktePI-29" value="GND" style="ellipse;whiteSpace=wrap;html=1;aspect=fixed;labelPosition=center;verticalLabelPosition=top;align=center;verticalAlign=bottom;" vertex="1" parent="1">
          <mxGeometry x="-680" y="980" width="20" height="20" as="geometry" />
        </mxCell>
        <mxCell id="4QsWJVczEeUK-PjktePI-30" value="TX" style="ellipse;whiteSpace=wrap;html=1;aspect=fixed;labelPosition=center;verticalLabelPosition=top;align=center;verticalAlign=bottom;" vertex="1" parent="1">
          <mxGeometry x="-560" y="980" width="20" height="20" as="geometry" />
        </mxCell>
        <mxCell id="4QsWJVczEeUK-PjktePI-31" value="RX" style="ellipse;whiteSpace=wrap;html=1;aspect=fixed;labelPosition=center;verticalLabelPosition=top;align=center;verticalAlign=bottom;" vertex="1" parent="1">
          <mxGeometry x="-595" y="980" width="20" height="20" as="geometry" />
        </mxCell>
        <mxCell id="4QsWJVczEeUK-PjktePI-33" value="&lt;span style=&quot;font-size: 16px;&quot;&gt;DS3231&lt;/span&gt;" style="rounded=1;whiteSpace=wrap;html=1;labelPosition=center;verticalLabelPosition=top;align=center;verticalAlign=bottom;" vertex="1" parent="1">
          <mxGeometry x="-595" y="1140" width="290" height="140" as="geometry" />
        </mxCell>
        <mxCell id="4QsWJVczEeUK-PjktePI-34" value="VCC" style="ellipse;whiteSpace=wrap;html=1;aspect=fixed;labelPosition=right;verticalLabelPosition=middle;align=left;verticalAlign=middle;" vertex="1" parent="1">
          <mxGeometry x="-575" y="1160" width="20" height="20" as="geometry" />
        </mxCell>
        <mxCell id="4QsWJVczEeUK-PjktePI-35" value="GND" style="ellipse;whiteSpace=wrap;html=1;aspect=fixed;labelPosition=right;verticalLabelPosition=middle;align=left;verticalAlign=middle;" vertex="1" parent="1">
          <mxGeometry x="-575" y="1190" width="20" height="20" as="geometry" />
        </mxCell>
        <mxCell id="4QsWJVczEeUK-PjktePI-36" value="SCL" style="ellipse;whiteSpace=wrap;html=1;aspect=fixed;labelPosition=right;verticalLabelPosition=middle;align=left;verticalAlign=middle;" vertex="1" parent="1">
          <mxGeometry x="-575" y="1250" width="20" height="20" as="geometry" />
        </mxCell>
        <mxCell id="4QsWJVczEeUK-PjktePI-37" value="SDA" style="ellipse;whiteSpace=wrap;html=1;aspect=fixed;labelPosition=right;verticalLabelPosition=middle;align=left;verticalAlign=middle;" vertex="1" parent="1">
          <mxGeometry x="-575" y="1219.5" width="20" height="20" as="geometry" />
        </mxCell>
        <mxCell id="4QsWJVczEeUK-PjktePI-58" style="edgeStyle=orthogonalEdgeStyle;rounded=0;orthogonalLoop=1;jettySize=auto;html=1;exitX=1;exitY=0.5;exitDx=0;exitDy=0;entryX=0;entryY=0.5;entryDx=0;entryDy=0;startArrow=classic;startFill=1;" edge="1" parent="1" source="4QsWJVczEeUK-PjktePI-42" target="4QsWJVczEeUK-PjktePI-37">
          <mxGeometry relative="1" as="geometry" />
        </mxCell>
        <mxCell id="4QsWJVczEeUK-PjktePI-42" value="9&lt;span style=&quot;background-color: transparent; color: light-dark(rgb(0, 0, 0), rgb(255, 255, 255));&quot;&gt;(SDA)&lt;/span&gt;" style="ellipse;whiteSpace=wrap;html=1;aspect=fixed;labelPosition=left;verticalLabelPosition=middle;align=right;verticalAlign=middle;" vertex="1" parent="1">
          <mxGeometry x="-680" y="1219.5" width="20" height="20" as="geometry" />
        </mxCell>
        <mxCell id="4QsWJVczEeUK-PjktePI-59" style="edgeStyle=orthogonalEdgeStyle;rounded=0;orthogonalLoop=1;jettySize=auto;html=1;exitX=1;exitY=0.5;exitDx=0;exitDy=0;entryX=0;entryY=0.5;entryDx=0;entryDy=0;startArrow=classic;startFill=1;" edge="1" parent="1" source="4QsWJVczEeUK-PjktePI-43" target="4QsWJVczEeUK-PjktePI-36">
          <mxGeometry relative="1" as="geometry" />
        </mxCell>
        <mxCell id="4QsWJVczEeUK-PjktePI-43" value="10(SCL)" style="ellipse;whiteSpace=wrap;html=1;aspect=fixed;labelPosition=left;verticalLabelPosition=middle;align=right;verticalAlign=middle;" vertex="1" parent="1">
          <mxGeometry x="-680" y="1250" width="20" height="20" as="geometry" />
        </mxCell>
        <mxCell id="4QsWJVczEeUK-PjktePI-56" style="edgeStyle=orthogonalEdgeStyle;rounded=0;orthogonalLoop=1;jettySize=auto;html=1;exitX=1;exitY=0.5;exitDx=0;exitDy=0;entryX=0;entryY=0.5;entryDx=0;entryDy=0;startArrow=classic;startFill=1;" edge="1" parent="1" source="4QsWJVczEeUK-PjktePI-44" target="4QsWJVczEeUK-PjktePI-34">
          <mxGeometry relative="1" as="geometry" />
        </mxCell>
        <mxCell id="4QsWJVczEeUK-PjktePI-44" value="3.3v" style="ellipse;whiteSpace=wrap;html=1;aspect=fixed;labelPosition=left;verticalLabelPosition=middle;align=right;verticalAlign=middle;" vertex="1" parent="1">
          <mxGeometry x="-680" y="1160" width="20" height="20" as="geometry" />
        </mxCell>
        <mxCell id="4QsWJVczEeUK-PjktePI-52" style="edgeStyle=orthogonalEdgeStyle;rounded=0;orthogonalLoop=1;jettySize=auto;html=1;exitX=1;exitY=0.5;exitDx=0;exitDy=0;entryX=0.5;entryY=1;entryDx=0;entryDy=0;endArrow=classic;endFill=1;startArrow=classic;startFill=1;" edge="1" parent="1" source="4QsWJVczEeUK-PjktePI-45" target="4QsWJVczEeUK-PjktePI-31">
          <mxGeometry relative="1" as="geometry" />
        </mxCell>
        <mxCell id="4QsWJVczEeUK-PjktePI-45" value="41" style="ellipse;whiteSpace=wrap;html=1;aspect=fixed;labelPosition=left;verticalLabelPosition=middle;align=right;verticalAlign=middle;" vertex="1" parent="1">
          <mxGeometry x="-680" y="1090" width="20" height="20" as="geometry" />
        </mxCell>
        <mxCell id="4QsWJVczEeUK-PjktePI-51" style="edgeStyle=orthogonalEdgeStyle;rounded=0;orthogonalLoop=1;jettySize=auto;html=1;exitX=1;exitY=0.5;exitDx=0;exitDy=0;entryX=0.5;entryY=1;entryDx=0;entryDy=0;startArrow=classic;startFill=1;jumpStyle=arc;" edge="1" parent="1" source="4QsWJVczEeUK-PjktePI-46" target="4QsWJVczEeUK-PjktePI-30">
          <mxGeometry relative="1" as="geometry" />
        </mxCell>
        <mxCell id="4QsWJVczEeUK-PjktePI-46" value="38" style="ellipse;whiteSpace=wrap;html=1;aspect=fixed;labelPosition=left;verticalLabelPosition=middle;align=right;verticalAlign=middle;" vertex="1" parent="1">
          <mxGeometry x="-680" y="1120" width="20" height="20" as="geometry" />
        </mxCell>
        <mxCell id="4QsWJVczEeUK-PjktePI-67" style="edgeStyle=orthogonalEdgeStyle;rounded=0;orthogonalLoop=1;jettySize=auto;html=1;exitX=0;exitY=0.5;exitDx=0;exitDy=0;entryX=0.5;entryY=1;entryDx=0;entryDy=0;startArrow=classic;startFill=1;" edge="1" parent="1" source="4QsWJVczEeUK-PjktePI-47" target="4QsWJVczEeUK-PjktePI-23">
          <mxGeometry relative="1" as="geometry" />
        </mxCell>
        <mxCell id="4QsWJVczEeUK-PjktePI-47" value="16" style="ellipse;whiteSpace=wrap;html=1;aspect=fixed;labelPosition=right;verticalLabelPosition=middle;align=left;verticalAlign=middle;" vertex="1" parent="1">
          <mxGeometry x="-810" y="1090" width="20" height="20" as="geometry" />
        </mxCell>
        <mxCell id="4QsWJVczEeUK-PjktePI-68" style="edgeStyle=orthogonalEdgeStyle;rounded=0;orthogonalLoop=1;jettySize=auto;html=1;exitX=0;exitY=0.5;exitDx=0;exitDy=0;entryX=0.5;entryY=1;entryDx=0;entryDy=0;startArrow=classic;startFill=1;" edge="1" parent="1" source="4QsWJVczEeUK-PjktePI-48" target="4QsWJVczEeUK-PjktePI-24">
          <mxGeometry relative="1" as="geometry" />
        </mxCell>
        <mxCell id="4QsWJVczEeUK-PjktePI-48" value="17" style="ellipse;whiteSpace=wrap;html=1;aspect=fixed;labelPosition=right;verticalLabelPosition=middle;align=left;verticalAlign=middle;" vertex="1" parent="1">
          <mxGeometry x="-810" y="1120" width="20" height="20" as="geometry" />
        </mxCell>
        <mxCell id="4QsWJVczEeUK-PjktePI-64" style="edgeStyle=orthogonalEdgeStyle;rounded=0;orthogonalLoop=1;jettySize=auto;html=1;exitX=1;exitY=0.5;exitDx=0;exitDy=0;entryX=0.5;entryY=1;entryDx=0;entryDy=0;startArrow=classic;startFill=1;" edge="1" parent="1" source="4QsWJVczEeUK-PjktePI-49" target="4QsWJVczEeUK-PjktePI-27">
          <mxGeometry relative="1" as="geometry">
            <Array as="points">
              <mxPoint x="-750" y="1170" />
              <mxPoint x="-750" y="1030" />
              <mxPoint x="-700" y="1030" />
            </Array>
          </mxGeometry>
        </mxCell>
        <mxCell id="4QsWJVczEeUK-PjktePI-49" value="3.3v" style="ellipse;whiteSpace=wrap;html=1;aspect=fixed;labelPosition=center;verticalLabelPosition=bottom;align=center;verticalAlign=top;" vertex="1" parent="1">
          <mxGeometry x="-810" y="1160" width="20" height="20" as="geometry" />
        </mxCell>
        <mxCell id="4QsWJVczEeUK-PjktePI-65" style="edgeStyle=orthogonalEdgeStyle;rounded=0;orthogonalLoop=1;jettySize=auto;html=1;exitX=1;exitY=0.5;exitDx=0;exitDy=0;entryX=0.5;entryY=1;entryDx=0;entryDy=0;startArrow=classic;startFill=1;" edge="1" parent="1" source="4QsWJVczEeUK-PjktePI-50" target="4QsWJVczEeUK-PjktePI-29">
          <mxGeometry relative="1" as="geometry">
            <Array as="points">
              <mxPoint x="-730" y="1213" />
              <mxPoint x="-730" y="1050" />
              <mxPoint x="-670" y="1050" />
            </Array>
          </mxGeometry>
        </mxCell>
        <mxCell id="4QsWJVczEeUK-PjktePI-50" value="GND" style="ellipse;whiteSpace=wrap;html=1;aspect=fixed;labelPosition=center;verticalLabelPosition=bottom;align=center;verticalAlign=top;" vertex="1" parent="1">
          <mxGeometry x="-810" y="1203" width="20" height="20" as="geometry" />
        </mxCell>
        <mxCell id="4QsWJVczEeUK-PjktePI-57" style="edgeStyle=orthogonalEdgeStyle;rounded=0;orthogonalLoop=1;jettySize=auto;html=1;exitX=1;exitY=0.5;exitDx=0;exitDy=0;entryX=0;entryY=0.5;entryDx=0;entryDy=0;startArrow=classic;startFill=1;" edge="1" parent="1" source="4QsWJVczEeUK-PjktePI-54" target="4QsWJVczEeUK-PjktePI-35">
          <mxGeometry relative="1" as="geometry" />
        </mxCell>
        <mxCell id="4QsWJVczEeUK-PjktePI-54" value="GND" style="ellipse;whiteSpace=wrap;html=1;aspect=fixed;labelPosition=left;verticalLabelPosition=middle;align=right;verticalAlign=middle;" vertex="1" parent="1">
          <mxGeometry x="-680" y="1190" width="20" height="20" as="geometry" />
        </mxCell>
        <mxCell id="4QsWJVczEeUK-PjktePI-73" value="" style="edgeStyle=orthogonalEdgeStyle;rounded=0;orthogonalLoop=1;jettySize=auto;html=1;exitX=0.5;exitY=0;exitDx=0;exitDy=0;entryX=0;entryY=0.8;entryDx=0;entryDy=0;startArrow=classic;startFill=1;" edge="1" parent="1" source="4QsWJVczEeUK-PjktePI-18" target="4QsWJVczEeUK-PjktePI-72">
          <mxGeometry relative="1" as="geometry">
            <mxPoint x="-990" y="1350" as="sourcePoint" />
            <mxPoint x="-1080" y="1000" as="targetPoint" />
          </mxGeometry>
        </mxCell>
        <mxCell id="4QsWJVczEeUK-PjktePI-72" value="" style="html=1;shape=mxgraph.electrical.electro-mechanical.singleSwitch;aspect=fixed;elSwitchState=off;rotation=-90;" vertex="1" parent="1">
          <mxGeometry x="-1085" y="1220" width="75" height="20" as="geometry" />
        </mxCell>
        <mxCell id="4QsWJVczEeUK-PjktePI-76" style="edgeStyle=orthogonalEdgeStyle;rounded=0;orthogonalLoop=1;jettySize=auto;html=1;exitX=1;exitY=0.8;exitDx=0;exitDy=0;entryX=0;entryY=0.5;entryDx=0;entryDy=0;startArrow=classic;startFill=1;jumpStyle=arc;" edge="1" parent="1" source="4QsWJVczEeUK-PjktePI-74" target="4QsWJVczEeUK-PjktePI-49">
          <mxGeometry relative="1" as="geometry" />
        </mxCell>
        <mxCell id="4QsWJVczEeUK-PjktePI-74" value="" style="html=1;shape=mxgraph.electrical.electro-mechanical.singleSwitch;aspect=fixed;elSwitchState=off;rotation=-90;" vertex="1" parent="1">
          <mxGeometry x="-1020" y="1223" width="75" height="20" as="geometry" />
        </mxCell>
      </root>
    </mxGraphModel>
  </diagram>
</mxfile>
